<svg width="64" height="104" viewBox="0 0 64 104" fill="none" xmlns="http://www.w3.org/2000/svg">
<path fill-rule="evenodd" clip-rule="evenodd" d="M0 51C0 47.136 3.136 44 7 44H57C60.864 44 64 47.136 64 51V93C64 94.8565 63.2625 96.637 61.9497 97.9497C60.637 99.2625 58.8565 100 57 100H7C5.14348 100 3.36301 99.2625 2.05025 97.9497C0.737498 96.637 0 94.8565 0 93L0 51ZM7 50C6.73478 50 6.48043 50.1054 6.29289 50.2929C6.10536 50.4804 6 50.7348 6 51V93C6 93.552 6.448 94 7 94H57C57.2652 94 57.5196 93.8946 57.7071 93.7071C57.8946 93.5196 58 93.2652 58 93V51C58 50.7348 57.8946 50.4804 57.7071 50.2929C57.5196 50.1054 57.2652 50 57 50H7ZM29 72C28.9993 72.7954 28.6828 73.5579 28.12 74.12L19.12 83.12C18.8454 83.4147 18.5141 83.6512 18.1462 83.8151C17.7782 83.9791 17.3809 84.0673 16.9781 84.0744C16.5753 84.0815 16.1752 84.0074 15.8016 83.8565C15.4281 83.7056 15.0887 83.481 14.8038 83.1962C14.519 82.9113 14.2944 82.5719 14.1435 82.1984C13.9926 81.8248 13.9185 81.4247 13.9256 81.0219C13.9327 80.6191 14.0209 80.2218 14.1849 79.8538C14.3488 79.4859 14.5853 79.1546 14.88 78.88L21.76 72L14.88 65.12C14.5853 64.8454 14.3488 64.5141 14.1849 64.1462C14.0209 63.7782 13.9327 63.3809 13.9256 62.9781C13.9185 62.5753 13.9926 62.1752 14.1435 61.8016C14.2944 61.4281 14.519 61.0887 14.8038 60.8038C15.0887 60.519 15.4281 60.2944 15.8016 60.1435C16.1752 59.9926 16.5753 59.9185 16.9781 59.9256C17.3809 59.9327 17.7782 60.0209 18.1462 60.1849C18.5141 60.3488 18.8454 60.5853 19.12 60.88L28.12 69.88C28.684 70.44 29 71.204 29 72ZM35 78C34.2044 78 33.4413 78.3161 32.8787 78.8787C32.3161 79.4413 32 80.2044 32 81C32 81.7956 32.3161 82.5587 32.8787 83.1213C33.4413 83.6839 34.2044 84 35 84H47C47.7956 84 48.5587 83.6839 49.1213 83.1213C49.6839 82.5587 50 81.7956 50 81C50 80.2044 49.6839 79.4413 49.1213 78.8787C48.5587 78.3161 47.7956 78 47 78H35Z" fill="black"/>
<path d="M13.25 35.9613H46.375C47.7414 35.9613 48.8594 37.0793 48.8594 38.4457V41.7582C48.8594 43.1246 47.7414 44.2426 46.375 44.2426H13.25C11.8836 44.2426 10.7656 43.1246 10.7656 41.7582V38.4457C10.7656 37.0793 11.8836 35.9613 13.25 35.9613Z" fill="white"/>
<path d="M30.8062 40.9301C31.4791 40.9301 32.0277 41.4787 32.0277 42.1516C32.0277 42.8244 31.4791 43.373 30.8062 43.373C30.1334 43.373 29.5848 42.8244 29.5848 42.1516C29.5848 41.4787 30.1334 40.9301 30.8062 40.9301ZM45.5469 35.9613H43.0625C41.6857 35.9613 40.5781 37.0689 40.5781 38.4457C40.5781 39.8225 39.4705 40.9301 38.0937 40.9301H35.1746C34.5018 40.9094 33.9428 41.4373 33.9221 42.1102C33.9014 42.783 34.4293 43.342 35.1021 43.3627C35.1229 43.3627 35.1539 43.3627 35.1746 43.3627H39.4912C38.8908 43.9217 38.0937 44.2322 37.2656 44.2322H45.5469C47.3791 44.2322 48.8594 42.752 48.8594 40.9197V39.2635C48.8594 37.4416 47.3791 35.9613 45.5469 35.9613Z" fill="#E6E6EF"/>
<path d="M7.45312 29.3363C9.28257 29.3363 10.7656 27.8533 10.7656 26.0238C10.7656 24.1944 9.28257 22.7113 7.45312 22.7113C5.62368 22.7113 4.14062 24.1944 4.14062 26.0238C4.14062 27.8533 5.62368 29.3363 7.45312 29.3363Z" fill="white"/>
<path d="M8.80918 23.0115C9.00586 23.4359 9.10938 23.9018 9.10938 24.3676C9.10938 26.1998 7.6291 27.6801 5.79688 27.6801C5.33105 27.6801 4.86523 27.5766 4.44082 27.3799C5.18613 29.0465 7.14258 29.8021 8.80918 29.0568C10.4758 28.3115 11.2314 26.3551 10.4861 24.6885C10.1549 23.9432 9.56484 23.3428 8.80918 23.0115Z" fill="#E6E6EF"/>
<path d="M21.6762 18.9641L10.393 24.5125L8.56074 22.8977L17.96 12.5461C23.5602 6.37656 33.6426 7.96035 37.1 15.548L46.375 35.9613H14.0781L23.1875 15.5895" fill="#FF5576"/>
<path d="M21.6762 18.9641L23.1875 15.5895L8.58145 22.8873L8.56074 22.908L10.4033 24.5229L21.6762 18.9641Z" fill="#B73958"/>
<path d="M35.599 15.5584C34.3051 15.5584 33.2596 16.6039 33.2596 17.8978C33.2596 18.2291 33.332 18.5603 33.4666 18.8605L36.2098 24.8955C37.8557 28.5186 35.2057 32.6385 31.2203 32.6385H26.5621C25.91 32.6385 25.3199 33.0215 25.0508 33.6219C24.6781 34.4603 25.0508 35.4334 25.8893 35.8061C26.1066 35.8992 26.3344 35.951 26.5621 35.951H46.375L37.7211 16.9144C37.3484 16.0967 36.51 15.5584 35.599 15.5584Z" fill="#B73958"/>
<path d="M45.5469 45.0707H14.0781C11.7904 45.0707 9.9375 43.2178 9.9375 40.9301V39.2738C9.9375 36.9861 11.7904 35.1332 14.0781 35.1332H45.5469C47.8346 35.1332 49.6875 36.9861 49.6875 39.2738V40.9301C49.6875 43.2178 47.8346 45.0707 45.5469 45.0707ZM14.0781 36.7895C12.7014 36.7895 11.5938 37.8971 11.5938 39.2738V40.9301C11.5938 42.3068 12.7014 43.4145 14.0781 43.4145H45.5469C46.9236 43.4145 48.0312 42.3068 48.0312 40.9301V39.2738C48.0312 37.8971 46.9236 36.7895 45.5469 36.7895H14.0781Z" fill="#444B54"/>
<path d="M14.0781 36.7895C13.9643 36.7895 13.8504 36.7688 13.7365 36.717C13.3225 36.5307 13.1361 36.0441 13.3225 35.6197L22.4318 15.2479C22.6285 14.8338 23.1254 14.6578 23.5395 14.8648C23.9328 15.0512 24.1088 15.517 23.9432 15.9311L14.8338 36.3029C14.6992 36.5928 14.4094 36.7895 14.0781 36.7895Z" fill="#444B54"/>
<path d="M44.9154 33.5701C44.5945 33.5701 44.2943 33.3838 44.1598 33.0836L36.3443 15.8896C33.8807 10.4758 27.4938 8.08457 22.0902 10.5482C20.7652 11.1486 19.5645 12.0182 18.5811 13.1051L9.17148 23.4566C8.87129 23.8086 8.35371 23.85 8.00176 23.5498C7.64981 23.2496 7.6084 22.732 7.90859 22.3801C7.91895 22.3697 7.9293 22.349 7.93965 22.3387L17.3492 11.9871C21.966 6.91485 29.8229 6.54219 34.8951 11.1486C36.1373 12.2873 37.1414 13.6537 37.8453 15.1961L45.6711 32.4004C45.8574 32.8145 45.6711 33.3113 45.257 33.4977C45.1535 33.5494 45.0396 33.5701 44.9154 33.5701Z" fill="#444B54"/>
<path d="M19.5023 28.6738C19.3885 28.6738 19.2746 28.6531 19.1607 28.6014C18.7467 28.415 18.5604 27.9285 18.7467 27.5041L20.5996 23.3635C20.7963 22.9494 21.2932 22.7734 21.7072 22.9805C22.1006 23.1668 22.2766 23.6326 22.1109 24.0467L20.258 28.1873C20.1234 28.4875 19.8336 28.6738 19.5023 28.6738Z" fill="white"/>
<path d="M36.7377 25.1957C37.0586 25.1957 37.3588 25.382 37.4934 25.6822L40.5057 32.3072C40.6816 32.7316 40.485 33.2182 40.0605 33.3941C39.6568 33.5701 39.191 33.3941 38.9943 32.9904L35.982 26.3654C35.7957 25.9514 35.982 25.4545 36.3961 25.2682C36.4996 25.2164 36.6238 25.1957 36.7377 25.1957ZM35.2574 21.935H35.2678C35.7232 21.935 36.0959 22.3076 36.0855 22.7631C36.0855 23.2186 35.7129 23.5912 35.2574 23.5809C34.802 23.5809 34.4293 23.2082 34.4396 22.7527C34.4293 22.2973 34.802 21.935 35.2574 21.935Z" fill="#444B54"/>
<path d="M10.4033 25.3406C9.94785 25.3406 9.57519 24.968 9.58555 24.5021C9.58555 24.1916 9.76152 23.9018 10.0514 23.7672L16.6971 20.4961C17.1008 20.2787 17.5977 20.4236 17.8254 20.8273C18.0531 21.2311 17.8979 21.7279 17.4941 21.9557C17.4734 21.966 17.4527 21.9764 17.432 21.9867L10.7656 25.2578C10.6518 25.3096 10.5275 25.3406 10.4033 25.3406Z" fill="#444B54"/>
<path d="M7.45312 30.1645C5.16543 30.1645 3.3125 28.3115 3.3125 26.0238C3.3125 23.7361 5.16543 21.8832 7.45312 21.8832C9.74082 21.8832 11.5938 23.7361 11.5938 26.0238C11.5938 28.3115 9.74082 30.1645 7.45312 30.1645ZM7.45312 23.5395C6.07637 23.5395 4.96875 24.6471 4.96875 26.0238C4.96875 27.4006 6.07637 28.5082 7.45312 28.5082C8.82988 28.5082 9.9375 27.4006 9.9375 26.0238C9.9375 24.6471 8.82988 23.5395 7.45312 23.5395Z" fill="#444B54"/>
<path d="M19.0469 33.477C19.5042 33.477 19.875 33.1062 19.875 32.6488C19.875 32.1915 19.5042 31.8207 19.0469 31.8207C18.5895 31.8207 18.2188 32.1915 18.2188 32.6488C18.2188 33.1062 18.5895 33.477 19.0469 33.477Z" fill="#444B54"/>
<path d="M22.3594 33.477C22.8167 33.477 23.1875 33.1062 23.1875 32.6488C23.1875 32.1915 22.8167 31.8207 22.3594 31.8207C21.902 31.8207 21.5312 32.1915 21.5312 32.6488C21.5312 33.1062 21.902 33.477 22.3594 33.477Z" fill="#444B54"/>
</svg>
